#Comment line ignore any data following # character 
#Hierarchical Translation and Rotation (.htr) file 
[Header]	
#Header keywords are followed by a single value 
FileType HTR		#Single word string
DataType HTRS		#Translation followed by rotation and scale data
FileVersion 1		#integer
NumSegments 84		#integer
NumFrames 2		#integer
DataFrameRate 30		#integer, data frame rate in this file
EulerRotationOrder ZYX
CalibrationUnits mm
RotationUnits Degrees
GlobalAxisofGravity Y
BoneLengthAxis Y
ScaleFactor 1.00
[SegmentNames&Hierarchy]
#CHILD	PARENT
MASTER GLOBAL
root MASTER
chest root
L_mid_tent01 root
R_mid_tent01 root
spine01 root
Bip01_Neck chest
L_humerus chest
R_humerus chest
weapon_bone chest
Bip01_Head Bip01_Neck
eye_left_bone Bip01_Head
eye_right_bone Bip01_Head
L_forearm L_humerus
L_front_hand L_forearm
L_weapon_bone L_forearm
L_front_hand01_01 L_front_hand
L_front_hand02_01 L_front_hand
L_front_hand03_01 L_front_hand
L_front_hand01_02 L_front_hand01_01
L_front_hand02_02 L_front_hand02_01
L_front_hand03_02 L_front_hand03_01
R_forearm R_humerus
R_front_hand R_forearm
R_weapon_bone R_forearm
R_front_hand01_01 R_front_hand
R_front_hand02_01 R_front_hand
R_front_hand03_01 R_front_hand
R_front_hand01_02 R_front_hand01_01
R_front_hand02_02 R_front_hand02_01
R_front_hand03_02 R_front_hand03_01
null_rope01_connect L_mid_tent01
Rope1_Seg01 null_rope01_connect
Rope1_Seg02 Rope1_Seg01
Rope1_Seg03 Rope1_Seg02
Rope1_Seg04 Rope1_Seg03
Rope1_Seg05 Rope1_Seg04
Rope1_Seg06 Rope1_Seg05
Rope1_Seg07 Rope1_Seg06
Rope1_Seg09 Rope1_Seg07
L_mid_hand01 Rope1_Seg09
L_mid_hand02 Rope1_Seg09
L_mid_hand03 Rope1_Seg09
null_rope02_connect R_mid_tent01
Rope2_Seg01 null_rope02_connect
Rope2_Seg02 Rope2_Seg01
Rope2_Seg03 Rope2_Seg02
Rope2_Seg04 Rope2_Seg03
Rope2_Seg05 Rope2_Seg04
Rope2_Seg06 Rope2_Seg05
Rope2_Seg07 Rope2_Seg06
Rope2_Seg09 Rope2_Seg07
R_mid_hand01 Rope2_Seg09
R_mid_hand02 Rope2_Seg09
R_mid_hand03 Rope2_Seg09
spine02 spine01
spine03 spine02
pelvis spine03
null_rope03_connect pelvis
null_rope04_connect pelvis
Rope3_Seg01 null_rope03_connect
Rope3_Seg02 Rope3_Seg01
Rope3_Seg03 Rope3_Seg02
Rope3_Seg04 Rope3_Seg03
Rope3_Seg05 Rope3_Seg04
Rope3_Seg06 Rope3_Seg05
Rope3_Seg07 Rope3_Seg06
Rope3_Seg08 Rope3_Seg07
Rope3_Seg09 Rope3_Seg08
R_rear_hand01 Rope3_Seg09
R_rear_hand02 Rope3_Seg09
R_rear_hand03 Rope3_Seg09
Rope4_Seg01 null_rope04_connect
Rope4_Seg02 Rope4_Seg01
Rope4_Seg03 Rope4_Seg02
Rope4_Seg04 Rope4_Seg03
Rope4_Seg05 Rope4_Seg04
Rope4_Seg06 Rope4_Seg05
Rope4_Seg07 Rope4_Seg06
Rope4_Seg08 Rope4_Seg07
Rope4_Seg09 Rope4_Seg08
L_rear_hand01 Rope4_Seg09
L_rear_hand02 Rope4_Seg09
L_rear_hand03 Rope4_Seg09
[BasePosition]
#SegmentName Tx, Ty, Tz, Rx, Ry, Rz, BoneLength
MASTER 0.000000 0.000000 0.000000 -90.000000 0.000000 0.000000 10.000000 
root 0.000000 0.000000 0.000000 0.000000 0.000000 0.000000 10.000000 
chest 0.000000 0.000000 0.000000 0.000000 0.000000 0.000000 10.000000 
L_mid_tent01 0.000000 0.000000 0.000000 0.000000 0.000000 0.000000 10.000000 
R_mid_tent01 0.000000 0.000000 0.000000 0.000000 0.000000 0.000000 10.000000 
spine01 0.000000 0.000000 0.000000 0.000000 0.000000 0.000000 10.000000 
Bip01_Neck 0.000000 0.000000 0.000000 0.000000 0.000000 0.000000 10.000000 
L_humerus 0.000000 0.000000 0.000000 0.000000 0.000000 0.000000 10.000000 
R_humerus 0.000000 0.000000 0.000000 0.000000 0.000000 0.000000 10.000000 
weapon_bone 0.000000 0.000000 0.000000 0.000000 0.000000 0.000000 10.000000 
Bip01_Head 0.000000 0.000000 0.000000 0.000000 0.000000 0.000000 10.000000 
eye_left_bone 0.000000 0.000000 0.000000 0.000000 0.000000 0.000000 10.000000 
eye_right_bone 0.000000 0.000000 0.000000 0.000000 0.000000 0.000000 10.000000 
L_forearm 0.000000 0.000000 0.000000 0.000000 0.000000 0.000000 10.000000 
L_front_hand 0.000000 0.000000 0.000000 0.000000 0.000000 0.000000 10.000000 
L_weapon_bone 0.000000 0.000000 0.000000 0.000000 0.000000 0.000000 10.000000 
L_front_hand01_01 0.000000 0.000000 0.000000 0.000000 0.000000 0.000000 10.000000 
L_front_hand02_01 0.000000 0.000000 0.000000 0.000000 0.000000 0.000000 10.000000 
L_front_hand03_01 0.000000 0.000000 0.000000 0.000000 0.000000 0.000000 10.000000 
L_front_hand01_02 0.000000 0.000000 0.000000 0.000000 0.000000 0.000000 10.000000 
L_front_hand02_02 0.000000 0.000000 0.000000 0.000000 0.000000 0.000000 10.000000 
L_front_hand03_02 0.000000 0.000000 0.000000 0.000000 0.000000 0.000000 10.000000 
R_forearm 0.000000 0.000000 0.000000 0.000000 0.000000 0.000000 10.000000 
R_front_hand 0.000000 0.000000 0.000000 0.000000 0.000000 0.000000 10.000000 
R_weapon_bone 0.000000 0.000000 0.000000 0.000000 0.000000 0.000000 10.000000 
R_front_hand01_01 0.000000 0.000000 0.000000 0.000000 0.000000 0.000000 10.000000 
R_front_hand02_01 0.000000 0.000000 0.000000 0.000000 0.000000 0.000000 10.000000 
R_front_hand03_01 0.000000 0.000000 0.000000 0.000000 0.000000 0.000000 10.000000 
R_front_hand01_02 0.000000 0.000000 0.000000 0.000000 0.000000 0.000000 10.000000 
R_front_hand02_02 0.000000 0.000000 0.000000 0.000000 0.000000 0.000000 10.000000 
R_front_hand03_02 0.000000 0.000000 0.000000 0.000000 0.000000 0.000000 10.000000 
null_rope01_connect 0.000000 0.000000 0.000000 0.000000 0.000000 0.000000 10.000000 
Rope1_Seg01 0.000000 0.000000 0.000000 0.000000 0.000000 0.000000 10.000000 
Rope1_Seg02 0.000000 0.000000 0.000000 0.000000 0.000000 0.000000 10.000000 
Rope1_Seg03 0.000000 0.000000 0.000000 0.000000 0.000000 0.000000 10.000000 
Rope1_Seg04 0.000000 0.000000 0.000000 0.000000 0.000000 0.000000 10.000000 
Rope1_Seg05 0.000000 0.000000 0.000000 0.000000 0.000000 0.000000 10.000000 
Rope1_Seg06 0.000000 0.000000 0.000000 0.000000 0.000000 0.000000 10.000000 
Rope1_Seg07 0.000000 0.000000 0.000000 0.000000 0.000000 0.000000 10.000000 
Rope1_Seg09 0.000000 0.000000 0.000000 0.000000 0.000000 0.000000 10.000000 
L_mid_hand01 0.000000 0.000000 0.000000 0.000000 0.000000 0.000000 10.000000 
L_mid_hand02 0.000000 0.000000 0.000000 0.000000 0.000000 0.000000 10.000000 
L_mid_hand03 0.000000 0.000000 0.000000 0.000000 0.000000 0.000000 10.000000 
null_rope02_connect 0.000000 0.000000 0.000000 0.000000 0.000000 0.000000 10.000000 
Rope2_Seg01 0.000000 0.000000 0.000000 0.000000 0.000000 0.000000 10.000000 
Rope2_Seg02 0.000000 0.000000 0.000000 0.000000 0.000000 0.000000 10.000000 
Rope2_Seg03 0.000000 0.000000 0.000000 0.000000 0.000000 0.000000 10.000000 
Rope2_Seg04 0.000000 0.000000 0.000000 0.000000 0.000000 0.000000 10.000000 
Rope2_Seg05 0.000000 0.000000 0.000000 0.000000 0.000000 0.000000 10.000000 
Rope2_Seg06 0.000000 0.000000 0.000000 0.000000 0.000000 0.000000 10.000000 
Rope2_Seg07 0.000000 0.000000 0.000000 0.000000 0.000000 0.000000 10.000000 
Rope2_Seg09 0.000000 0.000000 0.000000 0.000000 0.000000 0.000000 10.000000 
R_mid_hand01 0.000000 0.000000 0.000000 0.000000 0.000000 0.000000 10.000000 
R_mid_hand02 0.000000 0.000000 0.000000 0.000000 0.000000 0.000000 10.000000 
R_mid_hand03 0.000000 0.000000 0.000000 0.000000 0.000000 0.000000 10.000000 
spine02 0.000000 0.000000 0.000000 0.000000 0.000000 0.000000 10.000000 
spine03 0.000000 0.000000 0.000000 0.000000 0.000000 0.000000 10.000000 
pelvis 0.000000 0.000000 0.000000 0.000000 0.000000 0.000000 10.000000 
null_rope03_connect 0.000000 0.000000 0.000000 0.000000 0.000000 0.000000 10.000000 
null_rope04_connect 0.000000 0.000000 0.000000 0.000000 0.000000 0.000000 10.000000 
Rope3_Seg01 0.000000 0.000000 0.000000 0.000000 0.000000 0.000000 10.000000 
Rope3_Seg02 0.000000 0.000000 0.000000 0.000000 0.000000 0.000000 10.000000 
Rope3_Seg03 0.000000 0.000000 0.000000 0.000000 0.000000 0.000000 10.000000 
Rope3_Seg04 0.000000 0.000000 0.000000 0.000000 0.000000 0.000000 10.000000 
Rope3_Seg05 0.000000 0.000000 0.000000 0.000000 0.000000 0.000000 10.000000 
Rope3_Seg06 0.000000 0.000000 0.000000 0.000000 0.000000 0.000000 10.000000 
Rope3_Seg07 0.000000 0.000000 0.000000 0.000000 0.000000 0.000000 10.000000 
Rope3_Seg08 0.000000 0.000000 0.000000 0.000000 0.000000 0.000000 10.000000 
Rope3_Seg09 0.000000 0.000000 0.000000 0.000000 0.000000 0.000000 10.000000 
R_rear_hand01 0.000000 0.000000 0.000000 0.000000 0.000000 0.000000 10.000000 
R_rear_hand02 0.000000 0.000000 0.000000 0.000000 0.000000 0.000000 10.000000 
R_rear_hand03 0.000000 0.000000 0.000000 0.000000 0.000000 0.000000 10.000000 
Rope4_Seg01 0.000000 0.000000 0.000000 0.000000 0.000000 0.000000 10.000000 
Rope4_Seg02 0.000000 0.000000 0.000000 0.000000 0.000000 0.000000 10.000000 
Rope4_Seg03 0.000000 0.000000 0.000000 0.000000 0.000000 0.000000 10.000000 
Rope4_Seg04 0.000000 0.000000 0.000000 0.000000 0.000000 0.000000 10.000000 
Rope4_Seg05 0.000000 0.000000 0.000000 0.000000 0.000000 0.000000 10.000000 
Rope4_Seg06 0.000000 0.000000 0.000000 0.000000 0.000000 0.000000 10.000000 
Rope4_Seg07 0.000000 0.000000 0.000000 0.000000 0.000000 0.000000 10.000000 
Rope4_Seg08 0.000000 0.000000 0.000000 0.000000 0.000000 0.000000 10.000000 
Rope4_Seg09 0.000000 0.000000 0.000000 0.000000 0.000000 0.000000 10.000000 
L_rear_hand01 0.000000 0.000000 0.000000 0.000000 0.000000 0.000000 10.000000 
L_rear_hand02 0.000000 0.000000 0.000000 0.000000 0.000000 0.000000 10.000000 
L_rear_hand03 0.000000 0.000000 0.000000 0.000000 0.000000 0.000000 10.000000 
#Beginning of Data. Separated by tabs
#Fr	Tx	Ty	Tz	Rx	Ry	Rz	SF
[MASTER]
16 -2685.256592 3949.456787 2002.948730 0.001660 0.001660 0.001660 5178.862305
17 -2885.420898 4185.867188 2031.105469 0.001660 0.001660 0.001660 5474.716797
[root]
16 -37.064213 -46.201790 1500.543823 -52.871414 -18.650049 -103.235191 1501.712402
17 -37.669067 -48.965149 1502.080322 -56.366665 -19.563082 -102.308319 1503.350220
[chest]
16 -84.512650 -34.090519 0.000000 23.676136 1.011717 146.817108 91.129311
17 -84.512650 -34.090519 0.000000 22.205811 -1.539868 147.320618 91.129311
[L_mid_tent01]
16 27.298893 22.179146 -249.918961 2.035035 23.181133 79.489487 252.381927
17 27.298882 22.179138 -249.918976 2.161824 24.269516 79.618973 252.381943
[R_mid_tent01]
16 23.228794 24.509907 226.238495 160.540115 -39.811615 86.009216 228.744751
17 23.228794 24.509907 226.238495 161.018250 -39.764809 85.222351 228.744751
[spine01]
16 -0.361383 -0.195265 0.000000 0.002053 0.001139 31.957903 0.410763
17 -0.361383 -0.195265 0.000000 0.002050 0.001143 31.695620 0.410763
[Bip01_Neck]
16 165.484543 71.581718 0.000119 176.643677 -1.657967 43.431911 180.302734
17 165.484543 71.581718 0.000119 176.643677 -1.657967 43.431911 180.302734
[L_humerus]
16 -13.983130 -135.272980 -120.471481 -7.082582 63.652912 82.753624 181.680161
17 -13.983130 -135.272980 -120.471481 -7.065363 63.740829 82.775703 181.680161
[R_humerus]
16 -13.983309 -135.273102 125.287651 25.568293 -64.428352 70.156609 184.909012
17 -13.983309 -135.273102 125.287651 25.596910 -64.521523 70.131378 184.909012
[weapon_bone]
16 235.964890 -300.705902 0.000000 0.000000 -89.951546 -128.212341 382.234833
17 235.964890 -300.705902 0.000000 0.000000 -89.951546 -128.212341 382.234833
[Bip01_Head]
16 213.619385 185.227356 18.079218 4.439927 -1.377867 -43.899544 283.318329
17 213.581390 185.333694 16.708374 4.438732 -1.282231 -43.900688 283.275085
[eye_left_bone]
16 -24.626970 125.451866 -64.772606 0.000000 -90.000000 -99.840431 143.318359
17 -24.626970 125.451866 -64.772606 0.000000 -90.000000 -99.840431 143.318359
[eye_right_bone]
16 -24.626970 125.451866 64.327362 0.000000 -89.965736 80.156380 143.117676
17 -24.626970 125.451866 64.327362 0.000000 -89.965736 80.156380 143.117676
[L_forearm]
16 322.776093 0.000000 -0.000119 0.000432 -0.002307 -111.191727 322.776093
17 322.776093 0.000000 -0.000119 0.000431 -0.002307 -111.155769 322.776093
[L_front_hand]
16 241.149185 -0.042021 -3.300071 -178.667953 -1.835447 -27.422350 241.171753
17 241.149185 -0.042021 -3.300071 -178.667953 -1.835447 -27.422344 241.171753
[L_weapon_bone]
16 156.183838 0.000000 0.000000 0.000014 0.000007 0.000001 156.183838
17 156.183838 0.000000 0.000000 0.000014 0.000007 0.000001 156.183838
[L_front_hand01_01]
16 86.095154 20.947098 -0.655860 -0.280373 -0.529283 65.613800 88.609184
17 86.095154 20.947098 -0.655860 -0.282467 -0.528169 66.067474 88.609184
[L_front_hand02_01]
16 86.935165 -11.437475 24.513514 141.458649 -54.658344 -46.027485 91.046425
17 86.935165 -11.437475 24.513514 141.960785 -54.937954 -46.642345 91.046425
[L_front_hand03_01]
16 86.637497 -14.123976 -20.424902 -141.832764 52.885189 -48.080185 90.126129
17 86.637497 -14.123976 -20.424902 -142.303543 53.163303 -48.671032 90.126129
[L_front_hand01_02]
16 71.020905 -0.000179 0.000030 0.000315 -0.002326 -105.400543 71.020905
17 71.020905 -0.000179 0.000030 0.000315 -0.002326 -105.421257 71.020905
[L_front_hand02_02]
16 71.020927 -0.000119 0.000060 0.000315 -0.002326 -105.400543 71.020927
17 71.020927 -0.000119 0.000060 0.000315 -0.002326 -105.421257 71.020927
[L_front_hand03_02]
16 71.020905 -0.000060 0.000060 0.000315 -0.002326 -105.400543 71.020905
17 71.020905 -0.000060 0.000060 0.000315 -0.002326 -105.421257 71.020905
[R_forearm]
16 322.776428 -0.000060 0.000030 0.201066 0.068290 -109.843300 322.776428
17 322.776428 -0.000060 0.000030 0.201080 0.068247 -109.819130 322.776428
[R_front_hand]
16 238.847015 -0.006795 2.210259 -2.635298 -10.645461 -26.312506 238.857239
17 238.847015 -0.006795 2.210259 -2.635298 -10.645460 -26.312500 238.857239
[R_weapon_bone]
16 155.664093 0.002503 -0.000030 0.003487 0.001180 -90.988930 155.664078
17 155.664093 0.002503 -0.000030 0.003487 0.001180 -90.988930 155.664078
[R_front_hand01_01]
16 87.624611 14.231146 22.918642 -138.672287 -52.939835 42.677601 91.683487
17 87.624611 14.231146 22.918642 -139.271561 -53.333107 43.426708 91.683487
[R_front_hand02_01]
16 89.356956 14.367283 -19.491137 139.502045 51.377892 45.363930 92.579636
17 89.356956 14.367283 -19.491137 140.080994 51.767307 46.104946 92.579636
[R_front_hand03_01]
16 87.286232 -22.307278 -0.143439 0.064897 -0.451663 -63.182877 90.091743
17 87.286232 -22.307278 -0.143439 0.071479 -0.448702 -63.787704 90.091743
[R_front_hand01_02]
16 71.020905 0.000060 0.000119 0.002323 -0.000334 106.381714 71.020905
17 71.020905 0.000060 0.000119 0.002323 -0.000334 106.381706 71.020905
[R_front_hand02_02]
16 71.020844 -0.000030 -0.000119 0.002323 -0.000334 106.381714 71.020836
17 71.020844 -0.000030 -0.000119 0.002323 -0.000334 106.381706 71.020836
[R_front_hand03_02]
16 71.020905 0.000000 0.000030 0.002323 -0.000334 106.381714 71.020905
17 71.020905 0.000000 0.000030 0.002323 -0.000334 106.381706 71.020905
[null_rope01_connect]
16 328.732483 0.000000 -0.000238 -41.460381 -68.705452 70.874557 328.732483
17 328.732483 0.000000 -0.000238 -51.664318 -71.102432 81.436531 328.732483
[Rope1_Seg01]
16 0.000000 0.000000 0.000000 152.305298 38.082355 -155.434998 0.000000
17 0.000000 0.000000 0.000000 135.089203 29.675905 -163.934326 0.000000
[Rope1_Seg02]
16 139.999863 -0.000179 0.000000 12.011762 -14.708034 0.466463 139.999863
17 139.999863 -0.000179 0.000000 9.844009 -11.413646 -1.528227 139.999863
[Rope1_Seg03]
16 139.999924 0.000060 -0.000060 7.354307 -24.367176 6.631541 139.999924
17 139.999924 0.000060 -0.000060 9.652173 -20.100716 0.681284 139.999924
[Rope1_Seg04]
16 139.999924 -0.000060 -0.000119 0.280872 -21.799314 9.998340 139.999924
17 139.999924 -0.000060 -0.000119 4.533383 -24.623812 3.328942 139.999924
[Rope1_Seg05]
16 139.999832 0.000119 -0.000060 -7.205049 -30.033476 13.565978 139.999832
17 139.999832 0.000119 -0.000060 -1.759375 -20.528116 8.540974 139.999832
[Rope1_Seg06]
16 139.999954 0.000119 -0.000060 -27.855381 -35.545502 13.461260 139.999954
17 139.999954 0.000119 -0.000060 -14.807840 -32.578461 21.113707 139.999954
[Rope1_Seg07]
16 139.999985 0.000060 0.000000 -22.669428 -14.635821 -1.315405 139.999985
17 139.999985 0.000060 0.000000 -23.900305 -21.884380 8.150837 139.999985
[Rope1_Seg09]
16 121.602913 0.000119 -0.000089 -89.793175 -1.359789 0.847147 121.602913
17 121.602913 0.000119 -0.000089 -89.793175 -1.359789 0.847147 121.602913
[L_mid_hand01]
16 103.859421 1.038730 8.195221 122.214622 -62.281231 -29.682964 104.187431
17 103.859421 1.038730 8.195221 126.075401 -65.098549 -33.991913 104.187431
[L_mid_hand02]
16 105.572853 -4.139662 -10.864139 -163.055801 41.815437 -64.846191 106.211075
17 105.572853 -4.139662 -10.864139 -166.035263 42.723965 -69.273842 106.211075
[L_mid_hand03]
16 104.641464 17.579376 -3.913581 -8.059158 17.002197 68.062881 106.179977
17 104.641464 17.579376 -3.913581 -7.014418 17.452778 71.596474 106.179977
[null_rope02_connect]
16 328.732849 0.000179 -0.000119 -141.955566 21.646622 -8.553720 328.732849
17 328.732849 0.000179 -0.000119 -140.954636 24.701326 -6.968966 328.732849
[Rope2_Seg01]
16 0.000052 0.000095 0.000000 -19.846411 -19.976450 -7.123823 0.000109
17 0.000053 0.000092 0.000000 -21.969461 -22.614025 -2.976753 0.000106
[Rope2_Seg02]
16 139.999741 -0.000060 -0.000119 -4.429593 7.197258 2.381284 139.999756
17 139.999741 -0.000060 -0.000119 -2.728795 4.555525 2.304417 139.999756
[Rope2_Seg03]
16 140.000107 0.000030 0.000000 -14.518978 15.383990 6.634992 140.000107
17 140.000107 0.000030 0.000000 -5.941674 8.017230 4.585709 140.000107
[Rope2_Seg04]
16 139.999802 0.000000 -0.000060 -52.997684 34.954445 33.888683 139.999802
17 139.999802 0.000000 -0.000060 -19.539951 17.975637 13.492090 139.999802
[Rope2_Seg05]
16 139.999985 -0.000060 0.000119 -18.716455 -6.220271 30.375956 139.999985
17 139.999985 -0.000060 0.000119 -36.110672 22.799583 40.375183 139.999985
[Rope2_Seg06]
16 139.999893 -0.000030 -0.000119 -1.625656 -0.801299 4.104553 139.999893
17 139.999893 -0.000030 -0.000119 -10.104755 -4.835151 20.867273 139.999893
[Rope2_Seg07]
16 139.999893 0.000060 -0.000060 -2.883513 -2.680861 9.164357 139.999893
17 139.999893 0.000060 -0.000060 -3.797803 -7.349313 14.433698 139.999893
[Rope2_Seg09]
16 121.338966 0.000089 -0.000060 33.793236 -1.359788 -0.847141 121.338966
17 121.338966 0.000089 -0.000060 33.793236 -1.359788 -0.847141 121.338966
[R_mid_hand01]
16 104.680779 11.144459 -10.335981 -32.057350 37.073116 46.635818 105.778534
17 104.680779 11.144459 -10.335981 -28.450209 39.729855 52.441807 105.778534
[R_mid_hand02]
16 104.070427 2.443552 8.231699 66.850014 -50.884758 18.890066 104.424065
17 104.070427 2.443552 8.231699 63.903580 -55.672924 22.558943 104.424065
[R_mid_hand03]
16 106.028137 -11.221827 -5.996406 -171.959641 13.662919 -56.404911 106.788818
17 106.028137 -11.221827 -5.996406 -173.263687 14.341302 -61.789295 106.788818
[spine02]
16 129.756927 0.001550 0.000119 0.538614 -4.023777 -15.474610 129.756927
17 129.756927 0.001550 0.000119 0.534315 -4.024356 -15.422028 129.756927
[spine03]
16 78.614235 0.081730 -4.899110 2.000257 3.776486 18.067295 78.766777
17 78.614250 0.081726 -4.899117 1.999574 3.779497 18.034771 78.766800
[pelvis]
16 169.435242 0.051022 0.000000 -0.070410 -0.177705 17.318193 169.435257
17 169.435242 0.051022 0.000000 -0.070309 -0.177745 17.253162 169.435257
[null_rope03_connect]
16 -1.257226 -2.466202 137.391083 0.753574 -53.804050 60.241169 137.418976
17 -1.257226 -2.466202 137.391083 0.673963 -57.238594 60.838799 137.418976
[null_rope04_connect]
16 -1.259640 -2.480268 -137.844437 0.753574 -53.804050 60.241169 137.872513
17 -1.259640 -2.480268 -137.844437 0.673963 -57.238594 60.838799 137.872513
[Rope3_Seg01]
16 0.000015 -0.000181 -0.000153 -130.548447 -9.164779 -79.523979 0.000237
17 0.000015 -0.000198 -0.000153 -132.828430 -26.524868 -76.339493 0.000251
[Rope3_Seg02]
16 139.999924 -0.000119 0.000060 3.880145 -17.522089 -14.837615 139.999924
17 139.999924 -0.000119 0.000060 5.474293 -19.367353 -9.766829 139.999924
[Rope3_Seg03]
16 139.999924 -0.000119 0.000119 1.950058 -7.349032 -6.143630 139.999924
17 139.999924 -0.000119 0.000119 3.929149 -8.688960 -1.542649 139.999924
[Rope3_Seg04]
16 139.999924 0.000119 0.000000 2.039824 -5.651929 -3.947846 139.999924
17 139.999924 0.000119 0.000000 3.402159 -7.195900 -3.142597 139.999924
[Rope3_Seg05]
16 139.999924 -0.000238 0.000060 6.291819 -10.383255 -5.983751 139.999924
17 139.999924 -0.000238 0.000060 9.101495 -13.503320 -8.742258 139.999924
[Rope3_Seg06]
16 139.999893 -0.000119 -0.000060 15.707941 -14.496768 -6.473046 139.999893
17 139.999893 -0.000119 -0.000060 21.844324 -15.923189 -7.636558 139.999893
[Rope3_Seg07]
16 139.999771 0.000060 -0.000119 21.240736 -11.723535 -1.920826 139.999771
17 139.999771 0.000060 -0.000119 26.714207 -10.989686 -0.516873 139.999771
[Rope3_Seg08]
16 139.999985 -0.000060 0.000000 19.905071 -7.832754 1.660218 139.999985
17 139.999985 -0.000060 0.000000 20.042292 -6.159394 2.755397 139.999985
[Rope3_Seg09]
16 90.185997 -0.000179 -0.000060 89.793228 -1.359877 -0.847183 90.185997
17 90.185997 -0.000179 -0.000060 89.793228 -1.359877 -0.847183 90.185997
[R_rear_hand01]
16 103.366196 -6.073594 -10.757982 -169.706436 22.536156 -54.046982 104.101845
17 103.366196 -6.073594 -10.757982 -171.885513 23.373785 -59.632885 104.101845
[R_rear_hand02]
16 100.509819 12.039542 -7.992327 -24.637733 30.906170 51.254921 101.543350
17 100.509819 12.039542 -7.992327 -21.647255 32.954239 56.905464 101.543350
[R_rear_hand03]
16 101.539970 5.215704 5.435467 80.293877 -53.997543 11.741186 101.819031
17 101.539970 5.215704 5.435467 78.870155 -59.127991 13.449200 101.819031
[Rope4_Seg01]
16 0.000002 -0.000482 -0.000153 47.896328 14.768104 -108.677330 0.000505
17 0.000002 -0.000511 -0.000153 45.013641 8.138250 -124.271866 0.000533
[Rope4_Seg02]
16 139.999985 0.000060 0.000119 1.254763 24.408186 -4.201364 139.999985
17 139.999985 0.000060 0.000119 -2.329298 29.446093 -3.418627 139.999985
[Rope4_Seg03]
16 139.999924 0.000000 -0.000238 1.828509 8.580397 -0.838315 139.999924
17 139.999924 0.000000 -0.000238 1.701630 15.780952 1.780560 139.999924
[Rope4_Seg04]
16 139.999985 0.000000 0.000119 2.498269 6.180231 -2.301043 139.999985
17 139.999985 0.000000 0.000119 4.813832 11.481785 -6.573050 139.999985
[Rope4_Seg05]
16 139.999802 -0.000060 -0.000119 12.233353 18.841484 -11.279694 139.999802
17 139.999802 -0.000060 -0.000119 19.625830 29.290003 -37.176884 139.999802
[Rope4_Seg06]
16 139.999924 0.000000 0.000060 32.797592 30.497595 -33.779579 139.999924
17 139.999924 0.000000 0.000060 15.034177 8.913627 -34.071842 139.999924
[Rope4_Seg07]
16 139.999802 0.000000 0.000000 15.874085 1.962567 -24.570368 139.999802
17 139.999802 0.000000 0.000000 3.447925 -0.348338 -10.796429 139.999802
[Rope4_Seg08]
16 139.999924 0.000000 0.000119 0.504483 -0.875334 -4.271466 139.999924
17 139.999924 0.000000 0.000119 -1.059780 -0.146362 -1.564885 139.999924
[Rope4_Seg09]
16 90.185791 0.000060 0.000060 -135.617828 2.228885 0.850567 90.185791
17 90.185791 0.000060 0.000060 -135.617828 2.228885 0.850567 90.185791
[L_rear_hand01]
16 101.696655 -8.392275 -7.654577 -16.606979 -35.526840 114.151619 102.329041
17 101.696655 -8.392275 -7.654577 -14.676040 -36.272415 110.857796 102.329041
[L_rear_hand02]
16 102.726799 -1.568258 5.773216 75.446785 66.761177 162.720428 102.900848
17 102.726799 -1.568258 5.773216 73.610291 69.437737 160.740738 102.900848
[L_rear_hand03]
16 104.552910 9.721220 -10.420293 -175.325211 -24.244322 -111.864204 105.519653
17 104.552910 9.721220 -10.420293 -176.571304 -24.441328 -108.830574 105.519653
